<svg width="32" height="32" viewBox="0 0 32 32" fill="none" xmlns="http://www.w3.org/2000/svg">
<path d="M12.0003 29.3334C12.7367 29.3334 13.3337 28.7365 13.3337 28.0001C13.3337 27.2637 12.7367 26.6667 12.0003 26.6667C11.2639 26.6667 10.667 27.2637 10.667 28.0001C10.667 28.7365 11.2639 29.3334 12.0003 29.3334Z" stroke="white" stroke-width="2.5" stroke-linecap="round" stroke-linejoin="round"/>
<path d="M26.6663 29.3334C27.4027 29.3334 27.9997 28.7365 27.9997 28.0001C27.9997 27.2637 27.4027 26.6667 26.6663 26.6667C25.93 26.6667 25.333 27.2637 25.333 28.0001C25.333 28.7365 25.93 29.3334 26.6663 29.3334Z" stroke="white" stroke-width="2.5" stroke-linecap="round" stroke-linejoin="round"/>
<path d="M1.33301 1.33325H6.66634L10.2397 19.1866C10.3616 19.8004 10.6956 20.3519 11.1831 20.7443C11.6706 21.1368 12.2806 21.3452 12.9063 21.3333H25.8663C26.4921 21.3452 27.1021 21.1368 27.5896 20.7443C28.0771 20.3519 28.4111 19.8004 28.533 19.1866L30.6663 7.99992H7.99967" stroke="white" stroke-width="2.5" stroke-linecap="round" stroke-linejoin="round"/>
</svg>
