<svg width="56" height="56" viewBox="0 0 56 56" fill="none" xmlns="http://www.w3.org/2000/svg">
<path fill-rule="evenodd" clip-rule="evenodd" d="M28 0C12.536 0 0 12.536 0 28C0 43.464 12.536 56 28 56C43.464 56 56 43.464 56 28C56 12.536 43.464 0 28 0ZM21.8438 13.1569C23.4367 13.0844 23.9457 13.0667 28.0014 13.0667H27.9967C32.0537 13.0667 32.5608 13.0844 34.1537 13.1569C35.7435 13.2297 36.8293 13.4814 37.7813 13.8507C38.7644 14.2318 39.5951 14.742 40.4258 15.5727C41.2564 16.4027 41.7667 17.2359 42.1493 18.2181C42.5164 19.1676 42.7684 20.2528 42.8431 21.8426C42.9147 23.4355 42.9333 23.9445 42.9333 28.0002C42.9333 32.0558 42.9147 32.5636 42.8431 34.1565C42.7684 35.7457 42.5164 36.8311 42.1493 37.781C41.7667 38.7628 41.2564 39.596 40.4258 40.4261C39.596 41.2567 38.7641 41.7682 37.7822 42.1496C36.8321 42.5189 35.7457 42.7706 34.1559 42.8434C32.563 42.9159 32.0555 42.9336 27.9995 42.9336C23.9442 42.9336 23.4355 42.9159 21.8426 42.8434C20.2531 42.7706 19.1676 42.5189 18.2175 42.1496C17.2359 41.7682 16.4027 41.2567 15.573 40.4261C14.7426 39.596 14.2324 38.7628 13.8507 37.7807C13.4817 36.8311 13.23 35.746 13.1569 34.1562C13.0847 32.5633 13.0667 32.0558 13.0667 28.0002C13.0667 23.9445 13.0853 23.4352 13.1566 21.8423C13.2281 20.2531 13.4801 19.1676 13.8504 18.2178C14.233 17.2359 14.7433 16.4027 15.5739 15.5727C16.404 14.7423 17.2372 14.2321 18.2193 13.8507C19.1689 13.4814 20.254 13.2297 21.8438 13.1569Z" fill="white" fill-opacity="0.5"/>
<path fill-rule="evenodd" clip-rule="evenodd" d="M26.6615 15.7576C26.9216 15.7572 27.2014 15.7574 27.5034 15.7575L28.0011 15.7576C31.9884 15.7576 32.461 15.772 34.0355 15.8435C35.4915 15.9101 36.2818 16.1534 36.8082 16.3578C37.5051 16.6284 38.0019 16.952 38.5243 17.4747C39.0469 17.9974 39.3705 18.4951 39.6418 19.192C39.8462 19.7178 40.0898 20.508 40.1561 21.9641C40.2276 23.5383 40.2432 24.0112 40.2432 27.9966C40.2432 31.9819 40.2276 32.4548 40.1561 34.0291C40.0895 35.4851 39.8462 36.2753 39.6418 36.8011C39.3711 37.498 39.0469 37.9942 38.5243 38.5166C38.0016 39.0393 37.5054 39.3628 36.8082 39.6335C36.2824 39.8388 35.4915 40.0815 34.0355 40.1481C32.4613 40.2196 31.9884 40.2352 28.0011 40.2352C24.0136 40.2352 23.541 40.2196 21.9668 40.1481C20.5107 40.0809 19.7205 39.8376 19.1938 39.6332C18.4969 39.3625 17.9991 39.0389 17.4765 38.5163C16.9538 37.9936 16.6302 37.4971 16.3589 36.7999C16.1545 36.2741 15.9109 35.4838 15.8447 34.0278C15.7731 32.4536 15.7588 31.9807 15.7588 27.9928C15.7588 24.005 15.7731 23.5346 15.8447 21.9603C15.9112 20.5043 16.1545 19.7141 16.3589 19.1877C16.6296 18.4908 16.9538 17.993 17.4765 17.4703C17.9991 16.9477 18.4969 16.6241 19.1938 16.3528C19.7202 16.1475 20.5107 15.9048 21.9668 15.8379C23.3444 15.7757 23.8783 15.757 26.6615 15.7539V15.7576ZM35.9725 18.2372C34.9832 18.2372 34.1805 19.039 34.1805 20.0286C34.1805 21.018 34.9832 21.8206 35.9725 21.8206C36.9619 21.8206 37.7645 21.018 37.7645 20.0286C37.7645 19.0393 36.9619 18.2366 35.9725 18.2366V18.2372ZM20.3322 28C20.3322 23.7648 23.7659 20.331 28.0011 20.331H28.0008C32.236 20.331 35.6689 23.7648 35.6689 28C35.6689 32.2352 32.2363 35.6674 28.0011 35.6674C23.7659 35.6674 20.3322 32.2352 20.3322 28Z" fill="white" fill-opacity="0.5"/>
<path d="M28.0013 23.0225C30.7503 23.0225 32.9791 25.251 32.9791 28.0003C32.9791 30.7493 30.7503 32.9781 28.0013 32.9781C25.252 32.9781 23.0234 30.7493 23.0234 28.0003C23.0234 25.251 25.252 23.0225 28.0013 23.0225Z" fill="white" fill-opacity="0.5"/>
</svg>
