<svg width="56" height="56" viewBox="0 0 56 56" fill="none" xmlns="http://www.w3.org/2000/svg">
<g opacity="0.9">
<path fill-rule="evenodd" clip-rule="evenodd" d="M0 28C0 12.536 12.536 0 28 0C43.464 0 56 12.536 56 28C56 43.464 43.464 56 28 56C12.536 56 0 43.464 0 28ZM27.981 28.4495C32.1099 28.4495 35.4662 25.2093 35.4662 21.2258C35.4662 17.2411 32.1099 14 27.981 14C23.853 14 20.4957 17.2411 20.4957 21.2258C20.4957 25.2093 23.853 28.4495 27.981 28.4495ZM35.3752 32.6095C34.0217 33.4301 32.5523 34.012 31.0286 34.347L35.2131 38.3866C36.0703 39.2124 36.0703 40.5534 35.2131 41.3801C34.3567 42.2066 32.9688 42.2066 32.1134 41.3801L27.9992 37.4105L23.8887 41.3801C23.4601 41.7929 22.8984 41.9996 22.3368 41.9996C21.7761 41.9996 21.2154 41.7929 20.7867 41.3801C19.9304 40.5534 19.9304 39.2132 20.7858 38.3866L24.9707 34.347C23.4471 34.012 21.9776 33.4292 20.6242 32.6095C19.5999 31.9861 19.2922 30.6801 19.9376 29.6905C20.5812 28.6996 21.9346 28.4013 22.9607 29.0247C26.025 30.8854 29.9725 30.8858 33.0387 29.0247C34.0647 28.4013 35.4177 28.6996 36.0627 29.6905C36.7081 30.6792 36.3995 31.9861 35.3752 32.6095Z" fill="white" fill-opacity="0.5"/>
<path d="M27.9811 18.2344C29.6902 18.2344 31.0803 19.5759 31.0803 21.2256C31.0803 22.8741 29.6902 24.2164 27.9811 24.2164C26.2734 24.2164 24.8818 22.8741 24.8818 21.2256C24.8818 19.5759 26.2734 18.2344 27.9811 18.2344Z" fill="white" fill-opacity="0.5"/>
</g>
</svg>
