<svg width="57" height="56" viewBox="0 0 57 56" fill="none" xmlns="http://www.w3.org/2000/svg">
<path fill-rule="evenodd" clip-rule="evenodd" d="M28.5 0C13.036 0 0.5 12.536 0.5 28C0.5 43.464 13.036 56 28.5 56C43.964 56 56.5 43.464 56.5 28C56.5 12.536 43.964 0 28.5 0ZM30.7798 36.8389C30.5037 37.13 29.9647 37.1888 29.9647 37.1888H28.1796C28.1796 37.1888 24.2414 37.4211 20.772 33.8765C16.9886 30.0092 13.6478 22.3365 13.6478 22.3365C13.6478 22.3365 13.455 21.8332 13.6639 21.5908C13.899 21.317 14.5403 21.2998 14.5403 21.2998L18.8073 21.2725C18.8073 21.2725 19.209 21.337 19.4968 21.545C19.7349 21.717 19.8678 22.0368 19.8678 22.0368C19.8678 22.0368 20.5573 23.7488 21.4703 25.2975C23.2539 28.3215 24.0836 28.9826 24.6884 28.6585C25.5707 28.1868 25.3063 24.3841 25.3063 24.3841C25.3063 24.3841 25.3223 23.0047 24.8622 22.3895C24.5058 21.9135 23.8338 21.7744 23.5373 21.7357C23.2962 21.7041 23.6907 21.1564 24.2019 20.9112C24.9703 20.5427 26.3259 20.5211 27.9284 20.5369C29.1773 20.5498 29.5367 20.6258 30.0246 20.742C31.157 21.0102 31.1216 21.8698 31.0453 23.725C31.0225 24.2798 30.996 24.9237 30.996 25.6674C30.996 25.8345 30.9911 26.0127 30.9859 26.196C30.9595 27.1464 30.9292 28.2348 31.5672 28.6399C31.8944 28.8464 32.6934 28.67 34.6933 25.3376C35.6413 23.7575 36.3512 21.9006 36.3512 21.9006C36.3512 21.9006 36.5075 21.5693 36.7486 21.4274C36.9954 21.2825 37.3285 21.327 37.3285 21.327L41.8189 21.2998C41.8189 21.2998 43.1687 21.1406 43.3864 21.74C43.6157 22.3666 42.8824 23.832 41.0476 26.2324C39.3072 28.5099 38.4603 29.3485 38.538 30.0901C38.5948 30.632 39.1454 31.1221 40.2019 32.0841C42.4073 34.094 42.9985 35.1515 43.1405 35.4056C43.1523 35.4267 43.161 35.4422 43.1672 35.4523C44.1562 37.0626 42.0702 37.1888 42.0702 37.1888L38.0808 37.2432C38.0808 37.2432 37.2248 37.4096 36.0971 36.6496C35.5063 36.2519 34.9291 35.6022 34.3792 34.9835C33.5396 34.0385 32.7639 33.1655 32.1018 33.3717C30.9902 33.7187 31.0238 36.0689 31.0238 36.0689C31.0238 36.0689 31.0325 36.5722 30.7798 36.8389Z" fill="white" fill-opacity="0.5"/>
</svg>
