<svg width="57" height="56" viewBox="0 0 57 56" fill="none" xmlns="http://www.w3.org/2000/svg">
<path fill-rule="evenodd" clip-rule="evenodd" d="M0.25 28C0.25 43.464 12.786 56 28.25 56C43.714 56 56.25 43.464 56.25 28C56.25 12.536 43.714 0 28.25 0C12.786 0 0.25 12.536 0.25 28ZM45.8225 26.9284C45.8188 36.1063 38.3527 43.5742 29.1729 43.5779H29.166C26.3795 43.577 23.6414 42.8778 21.2096 41.5514L12.3833 43.8667L14.7454 35.239C13.2884 32.7139 12.5217 29.8497 12.5229 26.9153C12.5266 17.7353 19.9956 10.2667 29.1728 10.2667C33.6267 10.2686 37.8071 12.0025 40.9506 15.1496C44.094 18.2966 45.8243 22.4797 45.8225 26.9284Z" fill="white" fill-opacity="0.5"/>
<path fill-rule="evenodd" clip-rule="evenodd" d="M16.3808 39.9114L21.6185 38.5375L22.1238 38.8374C24.2485 40.0982 26.684 40.7654 29.1673 40.7663H29.1729C36.8003 40.7663 43.0082 34.5583 43.0112 26.9277C43.0127 23.23 41.5746 19.7532 38.9619 17.1374C36.3492 14.5216 32.8746 13.0804 29.1783 13.0791C21.545 13.0791 15.337 19.2865 15.334 26.9165C15.3329 29.5314 16.0645 32.0779 17.4498 34.2812L17.7788 34.8048L16.3808 39.9114ZM36.9911 30.5133C37.2812 30.6536 37.4772 30.7483 37.5608 30.8879C37.6648 31.0614 37.6648 31.8943 37.3183 32.8663C36.9715 33.838 35.3095 34.7249 34.5101 34.8443C33.7934 34.9515 32.8864 34.9962 31.8899 34.6795C31.2856 34.4877 30.5108 34.2318 29.5182 33.8031C25.6181 32.1191 22.9825 28.339 22.4843 27.6246C22.4494 27.5746 22.425 27.5396 22.4114 27.5214L22.4081 27.5169C22.1879 27.2232 20.7127 25.2549 20.7127 23.2178C20.7127 21.3015 21.654 20.2971 22.0873 19.8348C22.117 19.8031 22.1443 19.774 22.1687 19.7473C22.5501 19.3308 23.0008 19.2266 23.2781 19.2266C23.5554 19.2266 23.8331 19.2292 24.0755 19.2414C24.1054 19.2429 24.1365 19.2427 24.1686 19.2425C24.4111 19.2411 24.7133 19.2393 25.0115 19.9555C25.1262 20.2311 25.294 20.6397 25.471 21.0706C25.829 21.9422 26.2246 22.9052 26.2941 23.0445C26.3982 23.2528 26.4675 23.4956 26.3288 23.7734C26.308 23.815 26.2888 23.8543 26.2704 23.8919C26.1662 24.1045 26.0896 24.2609 25.9128 24.4673C25.8433 24.5485 25.7715 24.636 25.6996 24.7235C25.5565 24.8978 25.4134 25.0721 25.2888 25.1962C25.0805 25.4037 24.8637 25.6287 25.1064 26.0452C25.3491 26.4617 26.184 27.824 27.4207 28.9272C28.7502 30.113 29.9056 30.6142 30.4913 30.8682C30.6057 30.9178 30.6983 30.958 30.7663 30.992C31.1822 31.2003 31.4248 31.1655 31.6675 30.8879C31.9102 30.6103 32.7075 29.6731 32.9848 29.2567C33.2621 28.8403 33.5395 28.9097 33.9208 29.0485C34.3022 29.1874 36.3476 30.1937 36.7636 30.402C36.8448 30.4426 36.9207 30.4793 36.9911 30.5133Z" fill="white" fill-opacity="0.5"/>
</svg>
